<?xml version="1.0" encoding="utf-8"?>
<!-- Generator: Adobe Illustrator 16.0.0, SVG Export Plug-In . SVG Version: 6.00 Build 0)  -->
<!DOCTYPE svg PUBLIC "-//W3C//DTD SVG 1.1//EN" "http://www.w3.org/Graphics/SVG/1.1/DTD/svg11.dtd">
<svg version="1.1" id="Layer_1" xmlns="http://www.w3.org/2000/svg" xmlns:xlink="http://www.w3.org/1999/xlink" x="0px" y="0px"
	 width="426.5px" height="92px" viewBox="0 0 426.5 92" enable-background="new 0 0 426.5 92" xml:space="preserve">
<g>
	<path fill="#FFFFFF" d="M137.257,10.698c-18.195,10.534-44.307,15.769-44.307,15.769C90.908,37.575,80.183,38.47,80.183,38.47
		l-0.121,0.036c-2.072-4.119-2.004-10.268-2.004-10.268c1.291-0.607,2.771,0.189,2.771,0.189s-0.039-2.011-0.987-2.96
		c-0.949-0.949-3.719-0.493-3.719-0.493c-1.215-0.873-2.961-1.024-4.859-0.722c-1.897,0.304-2.239,1.784-2.239,1.784l-3.844,12.414
		c-1.334-0.163-10.708-1.672-12.604-11.984c0,0-26.112-5.234-44.307-15.769c0,0,1.576,10.086,6.911,21.025
		c2.346,1.302,7.073,3.283,14.923,3.969c0,0-7.193,0.908-12.424,0.705c3.811,6.503,9.045,12.846,16.156,17.122
		c2.434-0.151,6.189-0.587,9.1-1.835c0,0-2.198,2.188-6.385,3.318c0.085,0.043,0.169,0.088,0.256,0.13
		c23.366,11.3,30.352,8.81,35.956,27.387v0.001l0,0l0,0V82.52c5.605-18.577,12.591-16.087,35.957-27.387
		c0.087-0.042,0.17-0.087,0.256-0.13c-4.187-1.131-6.384-3.318-6.384-3.318c2.91,1.248,6.665,1.684,9.1,1.835
		c7.11-4.276,12.344-10.619,16.155-17.122c-5.229,0.203-12.423-0.705-12.423-0.705c7.85-0.686,12.577-2.667,14.923-3.969
		C135.681,20.784,137.257,10.698,137.257,10.698z M73.446,24.975c0.665,0.037,1.253,0.702,1.253,0.702s-0.816,0.038-1.301,0
		c-0.483-0.038-1.3-0.627-1.3-0.627S72.783,24.937,73.446,24.975z"/>
</g>
<g>
	<path fill="#FFFFFF" d="M159.909,47.365c-0.346-0.344-0.518-0.766-0.518-1.262V19.174c0-0.249,0.083-0.456,0.248-0.621
		c0.166-0.165,0.373-0.249,0.621-0.249h3.309c0.248,0,0.455,0.083,0.62,0.249c0.167,0.165,0.249,0.372,0.249,0.621v23.868h9.597
		c0.249,0,0.455,0.083,0.621,0.249c0.165,0.165,0.248,0.372,0.248,0.62v3.102c0,0.249-0.083,0.455-0.248,0.621
		c-0.166,0.166-0.372,0.248-0.621,0.248H161.17C160.674,47.882,160.254,47.71,159.909,47.365z"/>
	<path fill="#FFFFFF" d="M180.26,46.455c-1.447-1.309-2.172-3.012-2.172-5.108c0-1.903,0.662-3.481,1.986-4.736
		c1.323-1.254,3.186-2.075,5.583-2.461c0.607-0.055,1.186-0.138,1.738-0.248c1.93-0.22,3.102-0.386,3.516-0.497
		c1.02-0.165,1.53-0.744,1.53-1.737c0-1.02-0.421-1.84-1.261-2.461c-0.842-0.62-1.897-0.93-3.165-0.93
		c-2.234,0-3.861,0.813-4.881,2.44c-0.221,0.359-0.483,0.538-0.786,0.538c-0.222,0-0.4-0.054-0.538-0.166l-2.316-1.571
		c-0.25-0.166-0.373-0.4-0.373-0.704c0-0.082,0.026-0.206,0.083-0.372c0.799-1.516,1.986-2.695,3.558-3.537
		c1.572-0.841,3.351-1.261,5.335-1.261c1.82,0,3.419,0.344,4.799,1.034c1.378,0.69,2.447,1.669,3.207,2.937
		c0.757,1.269,1.137,2.73,1.137,4.385v15.015c0,0.249-0.083,0.455-0.248,0.621c-0.167,0.166-0.373,0.248-0.621,0.248h-2.813
		c-0.248,0-0.454-0.076-0.62-0.227c-0.166-0.152-0.248-0.366-0.248-0.642V45.4c-1.902,2.013-4.165,3.02-6.784,3.02
		C183.59,48.419,181.707,47.765,180.26,46.455z M189.339,43.167c0.965-0.551,1.744-1.276,2.337-2.172
		c0.593-0.896,0.89-1.841,0.89-2.833v-0.828l-3.103,0.456c-1.682,0.193-2.771,0.344-3.268,0.455
		c-2.261,0.414-3.392,1.393-3.392,2.937c0,0.854,0.317,1.537,0.951,2.047c0.634,0.511,1.476,0.766,2.524,0.766
		C187.354,43.994,188.374,43.718,189.339,43.167z"/>
	<path fill="#FFFFFF" d="M202.495,47.634c-0.166-0.166-0.248-0.372-0.248-0.621v-3.061c0-0.248,0.082-0.455,0.248-0.62
		c0.165-0.166,0.372-0.249,0.62-0.249h3.144v-14.23h-3.558c-0.248,0-0.454-0.083-0.62-0.248c-0.166-0.166-0.248-0.373-0.248-0.621
		v-2.937c0-0.249,0.083-0.455,0.248-0.621c0.166-0.166,0.372-0.249,0.62-0.249h6.412c0.496,0,0.917,0.173,1.262,0.518
		s0.517,0.765,0.517,1.262v1.489l2.234-1.779c0.827-0.662,1.544-1.123,2.15-1.386c0.606-0.261,1.324-0.393,2.151-0.393h1.282
		c0.248,0,0.454,0.083,0.62,0.248c0.166,0.165,0.248,0.373,0.248,0.621v3.185c0,0.249-0.082,0.455-0.248,0.621
		s-0.372,0.248-0.62,0.248h-1.075c-0.717,0-1.338,0.125-1.861,0.373c-0.524,0.248-1.324,0.8-2.399,1.654l-2.275,1.82v10.424h4.096
		c0.248,0,0.454,0.083,0.619,0.249c0.167,0.165,0.249,0.373,0.249,0.62v3.061c0,0.249-0.082,0.455-0.249,0.621
		c-0.165,0.166-0.371,0.248-0.619,0.248h-12.079C202.867,47.882,202.66,47.799,202.495,47.634z"/>
	<path fill="#FFFFFF" d="M224.315,46.455c-1.446-1.309-2.172-3.012-2.172-5.108c0-1.903,0.662-3.481,1.985-4.736
		c1.324-1.254,3.187-2.075,5.585-2.461c0.605-0.055,1.186-0.138,1.736-0.248c1.931-0.22,3.104-0.386,3.517-0.497
		c1.02-0.165,1.529-0.744,1.529-1.737c0-1.02-0.42-1.84-1.26-2.461c-0.842-0.62-1.896-0.93-3.165-0.93
		c-2.233,0-3.86,0.813-4.881,2.44c-0.222,0.359-0.482,0.538-0.786,0.538c-0.221,0-0.4-0.054-0.537-0.166l-2.316-1.571
		c-0.249-0.166-0.373-0.4-0.373-0.704c0-0.082,0.027-0.206,0.083-0.372c0.8-1.516,1.985-2.695,3.558-3.537
		c1.571-0.841,3.35-1.261,5.336-1.261c1.819,0,3.418,0.344,4.799,1.034c1.379,0.69,2.445,1.669,3.206,2.937
		c0.758,1.269,1.137,2.73,1.137,4.385v15.015c0,0.249-0.082,0.455-0.247,0.621c-0.167,0.166-0.373,0.248-0.621,0.248h-2.813
		c-0.248,0-0.455-0.076-0.62-0.227c-0.166-0.152-0.249-0.366-0.249-0.642V45.4c-1.903,2.013-4.164,3.02-6.784,3.02
		C227.646,48.419,225.764,47.765,224.315,46.455z M233.396,43.167c0.965-0.551,1.743-1.276,2.337-2.172
		c0.593-0.896,0.889-1.841,0.889-2.833v-0.828l-3.102,0.456c-1.683,0.193-2.771,0.344-3.269,0.455
		c-2.262,0.414-3.392,1.393-3.392,2.937c0,0.854,0.315,1.537,0.951,2.047c0.634,0.511,1.476,0.766,2.523,0.766
		C231.41,43.994,232.43,43.718,233.396,43.167z"/>
	<path fill="#FFFFFF" d="M251.266,47.117c-1.406-0.869-2.531-2.034-3.371-3.496c-0.843-1.461-1.263-3.033-1.263-4.715v-5.75
		c0-1.682,0.414-3.253,1.242-4.716c0.827-1.461,1.944-2.627,3.35-3.496c1.406-0.869,2.938-1.302,4.593-1.302
		c1.048,0,2.061,0.165,3.039,0.496s1.826,0.8,2.545,1.406v-8.479c0-0.248,0.083-0.455,0.248-0.62
		c0.166-0.166,0.372-0.249,0.62-0.249h3.227c0.248,0,0.455,0.083,0.621,0.249c0.165,0.165,0.248,0.372,0.248,0.62v29.949
		c0,0.249-0.083,0.455-0.248,0.621c-0.166,0.166-0.373,0.248-0.621,0.248h-2.688c-0.248,0-0.455-0.083-0.621-0.248
		c-0.165-0.166-0.248-0.372-0.248-0.621v-1.985c-0.744,1.13-1.641,1.979-2.688,2.543c-1.05,0.565-2.207,0.848-3.476,0.848
		C254.174,48.419,252.671,47.985,251.266,47.117z M259.951,42.235c0.966-0.951,1.449-2.102,1.449-3.453v-5.503
		c0-1.351-0.483-2.502-1.449-3.453c-0.965-0.952-2.122-1.428-3.474-1.428s-2.503,0.476-3.453,1.428
		c-0.952,0.951-1.429,2.103-1.429,3.453v5.503c0,1.351,0.477,2.502,1.429,3.453c0.95,0.952,2.102,1.428,3.453,1.428
		S258.986,43.187,259.951,42.235z"/>
	<path fill="#FFFFFF" d="M277.18,47.117c-1.504-0.869-2.696-2.048-3.578-3.537c-0.883-1.489-1.323-3.104-1.323-4.84v-5.419
		c0-1.737,0.44-3.351,1.323-4.84c0.882-1.489,2.074-2.668,3.578-3.537c1.505-0.869,3.15-1.302,4.943-1.302
		c1.792,0,3.44,0.434,4.944,1.302c1.502,0.869,2.694,2.048,3.577,3.537c0.882,1.49,1.324,3.103,1.324,4.84v5.419
		c0,1.737-0.442,3.351-1.324,4.84c-0.883,1.489-2.075,2.667-3.577,3.537c-1.504,0.868-3.152,1.302-4.944,1.302
		C280.33,48.419,278.685,47.985,277.18,47.117z M285.579,42.194c0.951-0.951,1.426-2.103,1.426-3.454v-5.419
		c0-1.351-0.475-2.503-1.426-3.454c-0.953-0.952-2.104-1.427-3.456-1.427s-2.503,0.476-3.454,1.427
		c-0.951,0.951-1.427,2.104-1.427,3.454v5.419c0,1.352,0.476,2.503,1.427,3.454s2.103,1.427,3.454,1.427
		S284.626,43.146,285.579,42.194z"/>
	<path fill="#FFFFFF" d="M295.113,47.613c-0.193-0.179-0.29-0.393-0.29-0.641c0-0.165,0.068-0.358,0.206-0.579l7.281-11.045
		l-6.33-9.68c-0.138-0.22-0.206-0.414-0.206-0.579c0-0.248,0.097-0.461,0.29-0.641c0.191-0.179,0.427-0.269,0.703-0.269h3.351
		c0.386,0,0.729,0.194,1.033,0.58l4.095,6.288l4.056-6.288c0.275-0.386,0.619-0.58,1.033-0.58h3.351c0.275,0,0.51,0.09,0.703,0.269
		c0.193,0.18,0.29,0.393,0.29,0.641c0,0.165-0.069,0.359-0.207,0.579l-6.329,9.68l7.28,11.045c0.137,0.221,0.207,0.414,0.207,0.579
		c0,0.248-0.097,0.462-0.29,0.641c-0.192,0.18-0.427,0.269-0.703,0.269h-3.432c-0.415,0-0.76-0.192-1.036-0.579l-4.923-7.653
		l-4.963,7.653c-0.276,0.387-0.62,0.579-1.035,0.579h-3.432C295.541,47.882,295.306,47.793,295.113,47.613z"/>
	<path fill="#FFFFFF" d="M321.648,47.882c-0.678-0.662-1.014-1.474-1.014-2.44c0-0.965,0.336-1.778,1.014-2.441
		c0.675-0.661,1.495-0.992,2.461-0.992c0.938,0,1.736,0.338,2.399,1.013c0.661,0.676,0.993,1.483,0.993,2.42
		c0,0.938-0.332,1.744-0.993,2.42c-0.663,0.675-1.461,1.014-2.399,1.014C323.144,48.875,322.323,48.544,321.648,47.882z"/>
	<path fill="#FFFFFF" d="M336.994,47.096c-1.505-0.882-2.695-2.083-3.579-3.599c-0.882-1.516-1.323-3.171-1.323-4.963v-5.006
		c0-1.792,0.441-3.447,1.323-4.963c0.884-1.516,2.074-2.716,3.579-3.599c1.503-0.882,3.149-1.323,4.942-1.323
		c1.379,0,2.702,0.283,3.972,0.848c1.269,0.566,2.358,1.359,3.268,2.378c0.193,0.193,0.291,0.413,0.291,0.662
		c0,0.304-0.125,0.58-0.374,0.827l-1.778,1.779c-0.193,0.193-0.413,0.29-0.663,0.29c-0.247,0-0.481-0.125-0.703-0.372
		c-1.075-1.076-2.411-1.614-4.012-1.614c-1.351,0-2.502,0.476-3.452,1.427c-0.953,0.951-1.429,2.104-1.429,3.454v5.419
		c0,1.352,0.476,2.503,1.429,3.454c0.95,0.951,2.102,1.427,3.452,1.427c1.601,0,2.937-0.538,4.012-1.613
		c0.222-0.248,0.456-0.373,0.703-0.373c0.25,0,0.47,0.097,0.663,0.29l1.778,1.779c0.249,0.248,0.374,0.523,0.374,0.827
		c0,0.248-0.098,0.469-0.291,0.662c-0.909,1.021-1.999,1.813-3.268,2.378c-1.27,0.565-2.593,0.848-3.972,0.848
		C340.144,48.419,338.497,47.979,336.994,47.096z"/>
	<path fill="#FFFFFF" d="M358.172,47.117c-1.503-0.869-2.695-2.048-3.577-3.537c-0.884-1.489-1.324-3.104-1.324-4.84v-5.419
		c0-1.737,0.44-3.351,1.324-4.84c0.882-1.489,2.074-2.668,3.577-3.537c1.505-0.869,3.151-1.302,4.944-1.302
		c1.792,0,3.44,0.434,4.943,1.302c1.502,0.869,2.695,2.048,3.578,3.537c0.881,1.49,1.323,3.103,1.323,4.84v5.419
		c0,1.737-0.442,3.351-1.323,4.84c-0.883,1.489-2.076,2.667-3.578,3.537c-1.503,0.868-3.151,1.302-4.943,1.302
		C361.323,48.419,359.677,47.985,358.172,47.117z M366.57,42.194c0.951-0.951,1.426-2.103,1.426-3.454v-5.419
		c0-1.351-0.475-2.503-1.426-3.454c-0.952-0.952-2.104-1.427-3.454-1.427c-1.352,0-2.504,0.476-3.454,1.427
		c-0.952,0.951-1.428,2.104-1.428,3.454v5.419c0,1.352,0.476,2.503,1.428,3.454c0.95,0.951,2.103,1.427,3.454,1.427
		C364.467,43.621,365.618,43.146,366.57,42.194z"/>
	<path fill="#FFFFFF" d="M378.876,47.634c-0.165-0.166-0.248-0.372-0.248-0.621V25.048c0-0.249,0.083-0.455,0.248-0.621
		c0.166-0.166,0.372-0.249,0.621-0.249h3.227c0.248,0,0.455,0.083,0.62,0.249c0.166,0.166,0.248,0.372,0.248,0.621v2.151
		c0.801-1.186,1.744-2.075,2.835-2.668c1.088-0.593,2.239-0.889,3.453-0.889c1.517,0,2.86,0.358,4.032,1.075
		c1.173,0.718,2.104,1.737,2.793,3.061c0.772-1.295,1.806-2.31,3.104-3.04c1.294-0.731,2.688-1.096,4.178-1.096
		c2.398,0,4.301,0.793,5.707,2.378c1.407,1.586,2.11,3.689,2.11,6.308v14.685c0,0.249-0.082,0.455-0.248,0.621
		s-0.372,0.248-0.62,0.248h-3.227c-0.249,0-0.455-0.083-0.621-0.248c-0.165-0.166-0.248-0.372-0.248-0.621V32.949
		c0-1.461-0.33-2.585-0.993-3.372c-0.661-0.786-1.612-1.179-2.854-1.179c-1.627,0-2.916,0.531-3.867,1.593
		c-0.952,1.063-1.428,2.517-1.428,4.364v12.658c0,0.249-0.082,0.455-0.248,0.621c-0.165,0.166-0.372,0.248-0.62,0.248h-3.226
		c-0.248,0-0.456-0.083-0.621-0.248s-0.248-0.372-0.248-0.621V32.949c0-1.461-0.33-2.585-0.994-3.372
		c-0.661-0.786-1.612-1.179-2.854-1.179c-1.628,0-2.916,0.531-3.867,1.593c-0.952,1.063-1.428,2.517-1.428,4.364v12.658
		c0,0.249-0.082,0.455-0.248,0.621c-0.165,0.166-0.372,0.248-0.62,0.248h-3.227C379.248,47.882,379.042,47.799,378.876,47.634z"/>
</g>
<g>
	<path fill="#FFFFFF" d="M160.355,73.208c-0.045-0.045-0.068-0.101-0.068-0.169v-5.443l-3.477-5.647
		c-0.034-0.068-0.051-0.125-0.051-0.17c0-0.09,0.027-0.162,0.084-0.212c0.057-0.051,0.13-0.076,0.221-0.076h0.916
		c0.102,0,0.187,0.05,0.254,0.152l2.748,4.529l2.73-4.529c0.068-0.102,0.153-0.152,0.255-0.152h0.916
		c0.09,0,0.164,0.025,0.221,0.076c0.056,0.05,0.084,0.122,0.084,0.212c0,0.045-0.018,0.102-0.051,0.17l-3.46,5.596v5.495
		c0,0.068-0.021,0.125-0.067,0.169c-0.045,0.046-0.102,0.068-0.169,0.068h-0.917C160.457,73.276,160.4,73.253,160.355,73.208z"/>
	<path fill="#FFFFFF" d="M167.698,73.005c-0.565-0.328-1.012-0.777-1.34-1.348c-0.328-0.571-0.491-1.19-0.491-1.858v-2.646
		c0-0.667,0.163-1.286,0.491-1.857c0.328-0.57,0.774-1.021,1.34-1.349c0.565-0.327,1.181-0.491,1.848-0.491s1.284,0.164,1.85,0.491
		c0.565,0.328,1.011,0.778,1.339,1.349c0.328,0.571,0.492,1.19,0.492,1.857v2.646c0,0.668-0.165,1.287-0.492,1.858
		c-0.328,0.571-0.774,1.02-1.339,1.348c-0.566,0.328-1.183,0.491-1.85,0.491S168.264,73.333,167.698,73.005z M170.734,71.928
		c0.362-0.209,0.646-0.495,0.856-0.856c0.209-0.361,0.313-0.757,0.313-1.188v-2.815c0-0.43-0.104-0.826-0.313-1.187
		c-0.21-0.362-0.495-0.647-0.856-0.856c-0.362-0.209-0.758-0.314-1.188-0.314c-0.429,0-0.825,0.104-1.187,0.314
		c-0.362,0.209-0.647,0.495-0.856,0.856c-0.209,0.361-0.314,0.757-0.314,1.187v2.815c0,0.43,0.104,0.826,0.314,1.188
		s0.494,0.647,0.856,0.856c0.362,0.209,0.757,0.313,1.187,0.313C169.977,72.241,170.372,72.137,170.734,71.928z"/>
	<path fill="#FFFFFF" d="M176.746,72.614c-0.594-0.587-0.89-1.362-0.89-2.323v-6.377c0-0.067,0.022-0.124,0.067-0.169
		c0.046-0.045,0.103-0.068,0.17-0.068h0.848c0.067,0,0.124,0.023,0.169,0.068c0.045,0.045,0.067,0.102,0.067,0.169v6.123
		c0,0.712,0.192,1.261,0.577,1.645c0.384,0.384,0.894,0.577,1.526,0.577c0.757,0,1.368-0.248,1.832-0.747
		c0.463-0.497,0.695-1.182,0.695-2.052v-5.546c0-0.067,0.022-0.124,0.068-0.169c0.045-0.045,0.102-0.068,0.17-0.068h0.847
		c0.068,0,0.125,0.023,0.17,0.068c0.045,0.045,0.068,0.102,0.068,0.169v9.124c0,0.068-0.023,0.125-0.068,0.169
		c-0.045,0.046-0.102,0.068-0.17,0.068h-0.847c-0.068,0-0.125-0.022-0.17-0.068c-0.045-0.045-0.068-0.101-0.068-0.169v-0.949
		c-0.294,0.463-0.676,0.814-1.145,1.052c-0.469,0.237-0.998,0.355-1.586,0.355C178.117,73.496,177.34,73.203,176.746,72.614z"/>
	<path fill="#FFFFFF" d="M185.573,73.208c-0.044-0.045-0.067-0.101-0.067-0.169v-0.78c0-0.067,0.023-0.124,0.067-0.169
		c0.045-0.045,0.103-0.068,0.17-0.068h1.408v-7.14h-1.408c-0.067,0-0.125-0.022-0.17-0.068c-0.044-0.044-0.067-0.101-0.067-0.169
		v-0.729c0-0.067,0.023-0.124,0.067-0.169c0.045-0.045,0.103-0.068,0.17-0.068h2.121c0.169,0,0.313,0.06,0.432,0.178
		c0.119,0.118,0.178,0.263,0.178,0.433v0.848l0.984-0.763c0.407-0.315,0.737-0.529,0.992-0.635c0.254-0.108,0.523-0.162,0.805-0.162
		h0.509c0.079,0,0.138,0.023,0.179,0.068c0.039,0.046,0.06,0.102,0.06,0.17v0.831c0,0.068-0.024,0.125-0.068,0.169
		c-0.045,0.046-0.102,0.068-0.17,0.068h-0.373c-0.283,0-0.549,0.06-0.797,0.178c-0.249,0.119-0.622,0.376-1.12,0.772l-1,0.797v5.393
		h1.967c0.068,0,0.125,0.023,0.169,0.068c0.045,0.045,0.068,0.102,0.068,0.169v0.78c0,0.068-0.023,0.125-0.068,0.169
		c-0.045,0.046-0.102,0.068-0.169,0.068h-4.698C185.675,73.276,185.618,73.253,185.573,73.208z"/>
	<path fill="#FFFFFF" d="M198.792,73.097c-0.119-0.118-0.178-0.262-0.178-0.432V62.1c0-0.169,0.059-0.314,0.178-0.432
		c0.119-0.119,0.264-0.178,0.433-0.178h3.019c0.803,0,1.544,0.201,2.223,0.602c0.678,0.401,1.215,0.944,1.61,1.628
		s0.595,1.433,0.595,2.247v2.832c0,0.815-0.199,1.564-0.595,2.248s-0.933,1.227-1.61,1.628c-0.679,0.401-1.42,0.602-2.223,0.602
		h-3.019C199.056,73.276,198.911,73.216,198.792,73.097z M202.243,71.97c0.554,0,1.063-0.136,1.526-0.407
		c0.465-0.271,0.832-0.642,1.103-1.111c0.271-0.469,0.407-0.98,0.407-1.535v-3.087c0-0.554-0.136-1.063-0.407-1.526
		c-0.271-0.464-0.638-0.832-1.103-1.102c-0.463-0.272-0.973-0.408-1.526-0.408h-2.238v9.176H202.243z"/>
	<path fill="#FFFFFF" d="M209.451,72.758c-0.554-0.492-0.83-1.139-0.83-1.942c0-0.746,0.251-1.361,0.754-1.848
		s1.207-0.792,2.111-0.916l2.205-0.306c0.327-0.045,0.565-0.155,0.713-0.331c0.146-0.175,0.22-0.426,0.22-0.754v-0.136
		c0-0.543-0.212-0.981-0.636-1.314c-0.424-0.333-0.952-0.5-1.585-0.5c-0.499,0-0.931,0.099-1.298,0.296
		c-0.367,0.198-0.659,0.473-0.874,0.823c-0.091,0.147-0.203,0.221-0.339,0.221c-0.067,0-0.142-0.028-0.221-0.085l-0.457-0.305
		c-0.103-0.09-0.153-0.187-0.153-0.288c0-0.045,0.017-0.103,0.051-0.17c0.328-0.542,0.777-0.969,1.349-1.28
		c0.57-0.311,1.229-0.466,1.976-0.466c0.679,0,1.283,0.126,1.815,0.381c0.53,0.254,0.94,0.613,1.229,1.078
		c0.288,0.463,0.433,1,0.433,1.61v6.512c0,0.068-0.023,0.125-0.067,0.169c-0.047,0.046-0.104,0.068-0.17,0.068h-0.713
		c-0.067,0-0.125-0.022-0.17-0.068c-0.046-0.045-0.067-0.101-0.067-0.169v-1.17c-0.351,0.509-0.801,0.908-1.349,1.197
		c-0.549,0.288-1.145,0.432-1.789,0.432C210.719,73.496,210.006,73.25,209.451,72.758z M213.233,71.868
		c0.452-0.293,0.806-0.663,1.061-1.11c0.254-0.446,0.381-0.884,0.381-1.314v-0.696c-0.271,0.034-1.142,0.153-2.611,0.356
		l-0.475,0.068c-1.131,0.17-1.696,0.701-1.696,1.594c0,0.463,0.17,0.837,0.51,1.119c0.338,0.283,0.779,0.424,1.322,0.424
		C212.278,72.309,212.781,72.162,213.233,71.868z"/>
	<path fill="#FFFFFF" d="M219.916,72.538c-0.464-0.491-0.696-1.111-0.696-1.857v-5.766h-1.118c-0.068,0-0.125-0.023-0.17-0.068
		c-0.046-0.045-0.068-0.102-0.068-0.169v-0.764c0-0.067,0.022-0.124,0.068-0.169c0.045-0.045,0.102-0.068,0.17-0.068h1.118v-1.781
		c0-0.067,0.023-0.125,0.068-0.17c0.045-0.045,0.102-0.067,0.169-0.067h0.85c0.067,0,0.124,0.022,0.169,0.067
		c0.044,0.045,0.067,0.103,0.067,0.17v1.781h2.984c0.068,0,0.125,0.023,0.171,0.068c0.045,0.045,0.067,0.102,0.067,0.169v0.78
		c0,0.068-0.022,0.124-0.067,0.169c-0.046,0.046-0.103,0.069-0.171,0.069h-2.984v5.597c0,0.44,0.133,0.794,0.399,1.06
		c0.266,0.266,0.612,0.404,1.042,0.415l1.543,0.018c0.068,0,0.125,0.023,0.171,0.068c0.045,0.045,0.067,0.102,0.067,0.169v0.78
		c0,0.068-0.022,0.125-0.067,0.169c-0.046,0.046-0.103,0.068-0.171,0.068h-1.694C221.018,73.276,220.38,73.03,219.916,72.538z"/>
	<path fill="#FFFFFF" d="M226.292,72.758c-0.554-0.492-0.83-1.139-0.83-1.942c0-0.746,0.251-1.361,0.755-1.848
		c0.502-0.486,1.206-0.792,2.11-0.916l2.205-0.306c0.327-0.045,0.564-0.155,0.712-0.331c0.146-0.175,0.22-0.426,0.22-0.754v-0.136
		c0-0.543-0.211-0.981-0.635-1.314c-0.426-0.333-0.953-0.5-1.585-0.5c-0.5,0-0.931,0.099-1.299,0.296
		c-0.367,0.198-0.659,0.473-0.873,0.823c-0.092,0.147-0.204,0.221-0.339,0.221c-0.068,0-0.143-0.028-0.221-0.085l-0.457-0.305
		c-0.103-0.09-0.153-0.187-0.153-0.288c0-0.045,0.016-0.103,0.051-0.17c0.328-0.542,0.777-0.969,1.349-1.28
		c0.569-0.311,1.229-0.466,1.976-0.466c0.678,0,1.282,0.126,1.814,0.381c0.531,0.254,0.941,0.613,1.229,1.078
		c0.288,0.463,0.432,1,0.432,1.61v6.512c0,0.068-0.022,0.125-0.067,0.169c-0.045,0.046-0.102,0.068-0.169,0.068h-0.713
		c-0.067,0-0.125-0.022-0.169-0.068c-0.046-0.045-0.068-0.101-0.068-0.169v-1.17c-0.35,0.509-0.8,0.908-1.348,1.197
		c-0.549,0.288-1.146,0.432-1.789,0.432C227.559,73.496,226.846,73.25,226.292,72.758z M230.073,71.868
		c0.453-0.293,0.807-0.663,1.06-1.11c0.256-0.446,0.382-0.884,0.382-1.314v-0.696c-0.271,0.034-1.141,0.153-2.611,0.356
		l-0.474,0.068c-1.131,0.17-1.696,0.701-1.696,1.594c0,0.463,0.17,0.837,0.509,1.119c0.339,0.283,0.78,0.424,1.323,0.424
		C229.119,72.309,229.622,72.162,230.073,71.868z"/>
	<path fill="#FFFFFF" d="M238.054,73.2c-0.447-0.198-0.834-0.472-1.162-0.823v0.661c0,0.068-0.022,0.125-0.067,0.169
		c-0.045,0.046-0.102,0.068-0.17,0.068h-0.78c-0.067,0-0.124-0.022-0.17-0.068c-0.044-0.045-0.068-0.101-0.068-0.169V60.641
		c0-0.067,0.024-0.125,0.068-0.17c0.046-0.045,0.103-0.068,0.17-0.068h0.849c0.066,0,0.124,0.023,0.169,0.068
		c0.045,0.045,0.067,0.103,0.067,0.17v4.002c0.317-0.373,0.693-0.664,1.129-0.874c0.436-0.209,0.896-0.313,1.383-0.313
		c0.644,0,1.236,0.158,1.78,0.474c0.544,0.317,0.973,0.747,1.289,1.289c0.314,0.543,0.476,1.136,0.476,1.78v2.951
		c0,0.645-0.161,1.238-0.476,1.781c-0.316,0.542-0.745,0.972-1.289,1.289c-0.544,0.316-1.137,0.475-1.78,0.475
		C238.972,73.496,238.5,73.397,238.054,73.2z M240.521,71.928c0.36-0.209,0.646-0.495,0.856-0.856
		c0.208-0.361,0.313-0.757,0.313-1.188v-2.815c0-0.43-0.105-0.826-0.313-1.187c-0.21-0.362-0.496-0.647-0.856-0.856
		c-0.361-0.209-0.758-0.314-1.188-0.314c-0.431,0-0.827,0.104-1.195,0.314c-0.368,0.209-0.656,0.495-0.864,0.856
		c-0.21,0.361-0.315,0.757-0.315,1.187v2.815c0,0.43,0.105,0.826,0.315,1.188c0.208,0.361,0.496,0.647,0.864,0.856
		c0.368,0.209,0.765,0.313,1.195,0.313C239.764,72.241,240.16,72.137,240.521,71.928z"/>
	<path fill="#FFFFFF" d="M245.797,72.758c-0.555-0.492-0.831-1.139-0.831-1.942c0-0.746,0.25-1.361,0.754-1.848
		s1.207-0.792,2.111-0.916l2.204-0.306c0.327-0.045,0.564-0.155,0.713-0.331c0.146-0.175,0.221-0.426,0.221-0.754v-0.136
		c0-0.543-0.212-0.981-0.637-1.314c-0.424-0.333-0.951-0.5-1.586-0.5c-0.498,0-0.93,0.099-1.296,0.296
		c-0.369,0.198-0.66,0.473-0.874,0.823c-0.091,0.147-0.204,0.221-0.341,0.221c-0.067,0-0.14-0.028-0.219-0.085l-0.459-0.305
		c-0.102-0.09-0.152-0.187-0.152-0.288c0-0.045,0.017-0.103,0.051-0.17c0.329-0.542,0.778-0.969,1.35-1.28
		c0.569-0.311,1.229-0.466,1.976-0.466c0.678,0,1.282,0.126,1.813,0.381c0.532,0.254,0.942,0.613,1.23,1.078
		c0.288,0.463,0.433,1,0.433,1.61v6.512c0,0.068-0.024,0.125-0.067,0.169c-0.046,0.046-0.104,0.068-0.17,0.068h-0.713
		c-0.067,0-0.124-0.022-0.169-0.068c-0.047-0.045-0.068-0.101-0.068-0.169v-1.17c-0.352,0.509-0.8,0.908-1.349,1.197
		c-0.549,0.288-1.146,0.432-1.79,0.432C247.062,73.496,246.35,73.25,245.797,72.758z M249.576,71.868
		c0.453-0.293,0.808-0.663,1.062-1.11c0.254-0.446,0.381-0.884,0.381-1.314v-0.696c-0.271,0.034-1.142,0.153-2.611,0.356
		l-0.476,0.068c-1.13,0.17-1.696,0.701-1.696,1.594c0,0.463,0.171,0.837,0.51,1.119c0.34,0.283,0.781,0.424,1.322,0.424
		C248.622,72.309,249.125,72.162,249.576,71.868z"/>
	<path fill="#FFFFFF" d="M255.836,73.242c-0.497-0.135-0.928-0.333-1.288-0.594c-0.047-0.022-0.077-0.059-0.095-0.11
		c-0.017-0.051-0.014-0.104,0.01-0.161l0.354-0.712c0.058-0.091,0.132-0.136,0.221-0.136c0.022,0,0.069,0.012,0.137,0.034
		c0.746,0.452,1.497,0.678,2.254,0.678c0.602,0,1.072-0.133,1.417-0.398c0.345-0.265,0.519-0.642,0.519-1.128
		c0-0.294-0.076-0.533-0.23-0.721c-0.152-0.187-0.354-0.339-0.601-0.458c-0.25-0.119-0.64-0.28-1.17-0.483
		c-0.691-0.26-1.234-0.503-1.63-0.729c-0.395-0.227-0.706-0.515-0.933-0.865s-0.338-0.797-0.338-1.34
		c0-0.871,0.287-1.532,0.864-1.985c0.577-0.452,1.317-0.677,2.221-0.677c0.476,0,0.948,0.067,1.416,0.203
		c0.471,0.136,0.891,0.328,1.265,0.577c0.044,0.022,0.074,0.063,0.085,0.118c0.012,0.057,0.006,0.108-0.018,0.153l-0.34,0.695
		c-0.022,0.068-0.064,0.114-0.127,0.136c-0.062,0.023-0.127,0.011-0.195-0.033c-0.723-0.43-1.419-0.645-2.086-0.645
		c-0.553,0-0.986,0.118-1.296,0.356c-0.313,0.237-0.467,0.582-0.467,1.035c0,0.351,0.084,0.633,0.254,0.848
		c0.169,0.215,0.374,0.375,0.61,0.483c0.238,0.107,0.616,0.257,1.138,0.45c0.666,0.238,1.191,0.458,1.577,0.662
		c0.384,0.203,0.7,0.475,0.949,0.814c0.248,0.339,0.372,0.78,0.372,1.323c0,0.871-0.302,1.557-0.907,2.06
		c-0.604,0.503-1.41,0.755-2.415,0.755C256.842,73.445,256.334,73.377,255.836,73.242z"/>
	<path fill="#FFFFFF" d="M264.52,72.784c-0.566-0.328-1.012-0.778-1.341-1.348c-0.328-0.571-0.492-1.19-0.492-1.857v-2.425
		c0-0.667,0.164-1.286,0.492-1.857c0.329-0.57,0.774-1.021,1.341-1.349c0.563-0.327,1.18-0.491,1.849-0.491
		c0.666,0,1.283,0.164,1.848,0.491c0.564,0.328,1.012,0.778,1.34,1.349c0.328,0.571,0.492,1.19,0.492,1.857v1.153
		c0,0.169-0.062,0.314-0.178,0.432c-0.119,0.12-0.264,0.179-0.434,0.179h-5.427v0.747c0,0.429,0.104,0.825,0.314,1.187
		c0.208,0.361,0.494,0.647,0.855,0.856c0.361,0.209,0.757,0.314,1.188,0.314h2.459c0.067,0,0.123,0.023,0.169,0.068
		c0.045,0.045,0.067,0.102,0.067,0.169v0.78c0,0.068-0.022,0.125-0.067,0.169c-0.046,0.046-0.102,0.068-0.169,0.068h-2.459
		C265.699,73.276,265.083,73.112,264.52,72.784z M268.726,67.696v-0.627c0-0.43-0.105-0.826-0.314-1.187
		c-0.21-0.362-0.494-0.647-0.857-0.856c-0.361-0.209-0.756-0.314-1.186-0.314c-0.432,0-0.827,0.104-1.188,0.314
		c-0.361,0.209-0.647,0.495-0.855,0.856c-0.21,0.361-0.314,0.757-0.314,1.187v0.627H268.726z"/>
	<path fill="#FFFFFF" d="M278.094,73.26c-0.56-0.159-1.044-0.38-1.449-0.662c-0.047-0.022-0.077-0.062-0.094-0.119
		c-0.018-0.056-0.014-0.112,0.009-0.169l0.39-0.763c0.056-0.102,0.137-0.152,0.237-0.152c0.058,0,0.102,0.012,0.135,0.034
		c0.872,0.52,1.696,0.78,2.478,0.78c0.724,0,1.317-0.184,1.78-0.551c0.464-0.368,0.696-0.862,0.696-1.484
		c0-0.407-0.103-0.74-0.307-1c-0.203-0.26-0.457-0.469-0.763-0.628c-0.305-0.158-0.73-0.344-1.271-0.56
		c-0.714-0.271-1.284-0.522-1.715-0.754c-0.43-0.231-0.802-0.568-1.119-1.009c-0.316-0.44-0.475-1.012-0.475-1.713
		c0-0.701,0.166-1.298,0.499-1.789c0.335-0.492,0.779-0.856,1.332-1.094c0.555-0.237,1.165-0.356,1.832-0.356
		c0.544,0,1.072,0.076,1.587,0.229c0.513,0.152,0.97,0.359,1.365,0.62c0.044,0.022,0.075,0.064,0.093,0.127
		c0.016,0.062,0.008,0.122-0.026,0.178l-0.372,0.695c-0.035,0.067-0.084,0.113-0.153,0.136c-0.067,0.022-0.137,0.011-0.203-0.034
		c-0.758-0.452-1.517-0.679-2.273-0.679c-0.689,0-1.241,0.17-1.654,0.51c-0.411,0.339-0.617,0.803-0.617,1.391
		c0,0.407,0.101,0.743,0.305,1.009c0.204,0.265,0.455,0.478,0.755,0.636c0.299,0.158,0.726,0.345,1.28,0.56
		c0.101,0.044,0.484,0.192,1.146,0.441c0.661,0.248,1.186,0.627,1.576,1.136c0.39,0.509,0.585,1.12,0.585,1.832
		c0,0.701-0.167,1.312-0.499,1.832c-0.335,0.52-0.795,0.918-1.383,1.195c-0.589,0.277-1.261,0.416-2.018,0.416
		C279.216,73.496,278.652,73.417,278.094,73.26z"/>
	<path fill="#FFFFFF" d="M287.617,73.005c-0.566-0.328-1.012-0.777-1.339-1.348c-0.33-0.571-0.493-1.19-0.493-1.858v-2.646
		c0-0.667,0.163-1.286,0.493-1.857c0.327-0.57,0.772-1.021,1.339-1.349c0.564-0.327,1.181-0.491,1.849-0.491
		c0.485,0,0.945,0.09,1.382,0.271c0.435,0.182,0.817,0.43,1.145,0.746c0.067,0.068,0.103,0.147,0.103,0.238
		c0,0.08-0.035,0.164-0.103,0.254c-0.113,0.125-0.243,0.254-0.391,0.39c-0.078,0.067-0.164,0.102-0.254,0.102
		c-0.102,0-0.193-0.04-0.271-0.12c-0.452-0.417-0.99-0.627-1.611-0.627c-0.431,0-0.826,0.104-1.188,0.314
		c-0.362,0.209-0.647,0.495-0.855,0.856c-0.211,0.361-0.314,0.757-0.314,1.187v2.815c0,0.43,0.104,0.826,0.314,1.188
		c0.208,0.361,0.493,0.647,0.855,0.856c0.361,0.209,0.757,0.313,1.188,0.313c0.621,0,1.159-0.209,1.611-0.627
		c0.077-0.079,0.169-0.119,0.271-0.119c0.09,0,0.176,0.034,0.254,0.102c0.137,0.113,0.267,0.244,0.391,0.39
		c0.067,0.068,0.103,0.153,0.103,0.254c0,0.091-0.035,0.17-0.103,0.237c-0.327,0.317-0.71,0.566-1.145,0.747
		c-0.437,0.181-0.896,0.271-1.382,0.271C288.798,73.496,288.182,73.333,287.617,73.005z"/>
	<path fill="#FFFFFF" d="M294.622,73.208c-0.046-0.045-0.068-0.101-0.068-0.169V60.641c0-0.067,0.022-0.125,0.068-0.17
		c0.044-0.045,0.102-0.068,0.169-0.068h0.848c0.067,0,0.124,0.023,0.169,0.068c0.045,0.045,0.068,0.103,0.068,0.17v4.222
		c0.294-0.462,0.675-0.813,1.145-1.051c0.47-0.238,0.998-0.355,1.586-0.355c0.961,0,1.738,0.293,2.331,0.881
		c0.595,0.588,0.892,1.363,0.892,2.324v6.376c0,0.068-0.023,0.125-0.068,0.169c-0.045,0.046-0.101,0.068-0.17,0.068h-0.849
		c-0.067,0-0.124-0.022-0.168-0.068c-0.046-0.045-0.069-0.101-0.069-0.169v-6.122c0-0.724-0.189-1.274-0.567-1.653
		s-0.891-0.568-1.535-0.568c-0.757,0-1.368,0.249-1.83,0.747c-0.465,0.497-0.696,1.182-0.696,2.052v5.545
		c0,0.068-0.023,0.125-0.068,0.169c-0.045,0.046-0.102,0.068-0.169,0.068h-0.848C294.724,73.276,294.666,73.253,294.622,73.208z"/>
	<path fill="#FFFFFF" d="M306.036,72.784c-0.566-0.328-1.013-0.778-1.341-1.348c-0.328-0.571-0.492-1.19-0.492-1.857v-2.425
		c0-0.667,0.164-1.286,0.492-1.857c0.328-0.57,0.774-1.021,1.341-1.349c0.563-0.327,1.18-0.491,1.847-0.491
		c0.668,0,1.283,0.164,1.849,0.491c0.565,0.328,1.011,0.778,1.34,1.349c0.328,0.571,0.493,1.19,0.493,1.857v1.153
		c0,0.169-0.062,0.314-0.179,0.432c-0.119,0.12-0.264,0.179-0.433,0.179h-5.428v0.747c0,0.429,0.104,0.825,0.315,1.187
		c0.208,0.361,0.493,0.647,0.855,0.856c0.361,0.209,0.757,0.314,1.187,0.314h2.46c0.066,0,0.123,0.023,0.169,0.068
		c0.046,0.045,0.067,0.102,0.067,0.169v0.78c0,0.068-0.021,0.125-0.067,0.169c-0.046,0.046-0.103,0.068-0.169,0.068h-2.46
		C307.216,73.276,306.599,73.112,306.036,72.784z M310.24,67.696v-0.627c0-0.43-0.104-0.826-0.313-1.187
		c-0.209-0.362-0.495-0.647-0.856-0.856c-0.362-0.209-0.757-0.314-1.188-0.314c-0.43,0-0.825,0.104-1.187,0.314
		c-0.362,0.209-0.647,0.495-0.855,0.856c-0.211,0.361-0.315,0.757-0.315,1.187v0.627H310.24z"/>
	<path fill="#FFFFFF" d="M314.141,73.208c-0.046-0.045-0.066-0.101-0.066-0.169v-9.124c0-0.067,0.021-0.124,0.066-0.169
		c0.046-0.045,0.102-0.068,0.171-0.068h0.846c0.069,0,0.125,0.023,0.17,0.068c0.046,0.045,0.069,0.102,0.069,0.169v0.917
		c0.271-0.453,0.629-0.794,1.075-1.027c0.447-0.231,0.942-0.347,1.484-0.347c0.713,0,1.331,0.167,1.857,0.5
		c0.525,0.333,0.901,0.789,1.128,1.366c0.237-0.599,0.604-1.057,1.103-1.375c0.497-0.316,1.063-0.475,1.695-0.475
		c0.962,0,1.739,0.294,2.332,0.882c0.594,0.588,0.892,1.363,0.892,2.324v6.359c0,0.068-0.023,0.125-0.068,0.169
		c-0.045,0.046-0.102,0.068-0.169,0.068h-0.849c-0.068,0-0.125-0.022-0.17-0.068c-0.046-0.045-0.068-0.101-0.068-0.169v-6.104
		c0-0.724-0.188-1.275-0.566-1.654c-0.381-0.379-0.892-0.568-1.535-0.568c-0.703,0-1.27,0.249-1.704,0.747
		c-0.438,0.497-0.654,1.181-0.654,2.052v5.528c0,0.068-0.023,0.125-0.067,0.169c-0.045,0.046-0.102,0.068-0.17,0.068h-0.849
		c-0.067,0-0.124-0.022-0.169-0.068c-0.045-0.045-0.068-0.101-0.068-0.169v-6.122c0-0.724-0.189-1.274-0.568-1.653
		c-0.378-0.379-0.89-0.568-1.534-0.568c-0.701,0-1.27,0.249-1.705,0.747c-0.434,0.497-0.651,1.182-0.651,2.052v5.545
		c0,0.068-0.023,0.125-0.069,0.169c-0.045,0.046-0.101,0.068-0.17,0.068h-0.846C314.242,73.276,314.187,73.253,314.141,73.208z"/>
	<path fill="#FFFFFF" d="M331.253,72.784c-0.566-0.328-1.013-0.778-1.339-1.348c-0.329-0.571-0.494-1.19-0.494-1.857v-2.425
		c0-0.667,0.165-1.286,0.494-1.857c0.326-0.57,0.772-1.021,1.339-1.349c0.564-0.327,1.181-0.491,1.849-0.491
		c0.666,0,1.283,0.164,1.848,0.491c0.565,0.328,1.012,0.778,1.341,1.349c0.327,0.571,0.491,1.19,0.491,1.857v1.153
		c0,0.169-0.061,0.314-0.178,0.432c-0.119,0.12-0.264,0.179-0.433,0.179h-5.427v0.747c0,0.429,0.104,0.825,0.313,1.187
		c0.209,0.361,0.493,0.647,0.856,0.856c0.361,0.209,0.757,0.314,1.188,0.314h2.458c0.067,0,0.124,0.023,0.17,0.068
		c0.046,0.045,0.066,0.102,0.066,0.169v0.78c0,0.068-0.021,0.125-0.066,0.169c-0.046,0.046-0.103,0.068-0.17,0.068h-2.458
		C332.434,73.276,331.817,73.112,331.253,72.784z M335.459,67.696v-0.627c0-0.43-0.106-0.826-0.313-1.187
		c-0.211-0.362-0.496-0.647-0.857-0.856c-0.362-0.209-0.758-0.314-1.187-0.314c-0.431,0-0.826,0.104-1.188,0.314
		c-0.363,0.209-0.647,0.495-0.856,0.856c-0.21,0.361-0.313,0.757-0.313,1.187v0.627H335.459z"/>
	<path fill="#FFFFFF" d="M344.047,73.097c-0.118-0.118-0.177-0.262-0.177-0.432V62.1c0-0.169,0.059-0.314,0.177-0.432
		c0.119-0.119,0.264-0.178,0.433-0.178h3.02c0.804,0,1.542,0.201,2.222,0.602c0.678,0.401,1.215,0.944,1.611,1.628
		c0.395,0.684,0.594,1.433,0.594,2.247v2.832c0,0.815-0.199,1.564-0.594,2.248c-0.396,0.684-0.934,1.227-1.611,1.628
		c-0.68,0.401-1.418,0.602-2.222,0.602h-3.02C344.311,73.276,344.166,73.216,344.047,73.097z M347.499,71.97
		c0.554,0,1.063-0.136,1.526-0.407c0.463-0.271,0.831-0.642,1.102-1.111c0.271-0.469,0.408-0.98,0.408-1.535v-3.087
		c0-0.554-0.137-1.063-0.408-1.526c-0.271-0.464-0.639-0.832-1.102-1.102c-0.463-0.272-0.973-0.408-1.526-0.408h-2.238v9.176
		H347.499z"/>
	<path fill="#FFFFFF" d="M355.962,72.784c-0.565-0.328-1.013-0.778-1.341-1.348c-0.327-0.571-0.492-1.19-0.492-1.857v-2.425
		c0-0.667,0.165-1.286,0.492-1.857c0.328-0.57,0.775-1.021,1.341-1.349c0.563-0.327,1.18-0.491,1.849-0.491
		c0.667,0,1.283,0.164,1.848,0.491c0.564,0.328,1.012,0.778,1.341,1.349c0.327,0.571,0.491,1.19,0.491,1.857v1.153
		c0,0.169-0.06,0.314-0.178,0.432c-0.119,0.12-0.264,0.179-0.433,0.179h-5.428v0.747c0,0.429,0.104,0.825,0.314,1.187
		c0.21,0.361,0.493,0.647,0.855,0.856c0.362,0.209,0.758,0.314,1.188,0.314h2.458c0.068,0,0.124,0.023,0.17,0.068
		c0.046,0.045,0.067,0.102,0.067,0.169v0.78c0,0.068-0.021,0.125-0.067,0.169c-0.046,0.046-0.102,0.068-0.17,0.068h-2.458
		C357.142,73.276,356.525,73.112,355.962,72.784z M360.168,67.696v-0.627c0-0.43-0.105-0.826-0.314-1.187
		c-0.209-0.362-0.494-0.647-0.857-0.856c-0.361-0.209-0.757-0.314-1.186-0.314c-0.431,0-0.826,0.104-1.188,0.314
		c-0.362,0.209-0.646,0.495-0.855,0.856c-0.21,0.361-0.314,0.757-0.314,1.187v0.627H360.168z"/>
	<path fill="#FFFFFF" d="M364.78,73.242c-0.498-0.135-0.929-0.333-1.289-0.594c-0.045-0.022-0.077-0.059-0.094-0.11
		c-0.018-0.051-0.014-0.104,0.008-0.161l0.357-0.712c0.056-0.091,0.13-0.136,0.221-0.136c0.022,0,0.067,0.012,0.135,0.034
		c0.745,0.452,1.499,0.678,2.256,0.678c0.6,0,1.072-0.133,1.416-0.398c0.344-0.265,0.518-0.642,0.518-1.128
		c0-0.294-0.076-0.533-0.229-0.721c-0.152-0.187-0.353-0.339-0.602-0.458s-0.64-0.28-1.17-0.483
		c-0.689-0.26-1.233-0.503-1.628-0.729c-0.396-0.227-0.707-0.515-0.934-0.865c-0.226-0.35-0.34-0.797-0.34-1.34
		c0-0.871,0.288-1.532,0.865-1.985c0.578-0.452,1.316-0.677,2.222-0.677c0.477,0,0.948,0.067,1.416,0.203
		c0.47,0.136,0.892,0.328,1.264,0.577c0.045,0.022,0.074,0.063,0.086,0.118c0.012,0.057,0.005,0.108-0.019,0.153l-0.339,0.695
		c-0.023,0.068-0.064,0.114-0.126,0.136c-0.063,0.023-0.128,0.011-0.195-0.033c-0.725-0.43-1.42-0.645-2.087-0.645
		c-0.553,0-0.986,0.118-1.297,0.356c-0.312,0.237-0.466,0.582-0.466,1.035c0,0.351,0.085,0.633,0.254,0.848
		c0.169,0.215,0.374,0.375,0.61,0.483c0.236,0.107,0.615,0.257,1.137,0.45c0.668,0.238,1.192,0.458,1.577,0.662
		c0.384,0.203,0.7,0.475,0.95,0.814c0.248,0.339,0.372,0.78,0.372,1.323c0,0.871-0.302,1.557-0.906,2.06
		c-0.605,0.503-1.41,0.755-2.417,0.755C365.787,73.445,365.277,73.377,364.78,73.242z"/>
	<path fill="#FFFFFF" d="M373.387,73.097c-0.118-0.118-0.177-0.262-0.177-0.432v-7.733h-1.765c-0.068,0-0.125-0.022-0.17-0.069
		c-0.045-0.045-0.067-0.101-0.067-0.169v-0.78c0-0.067,0.022-0.124,0.067-0.169c0.045-0.045,0.102-0.068,0.17-0.068h2.476
		c0.17,0,0.315,0.06,0.433,0.178c0.119,0.118,0.178,0.263,0.178,0.433v7.733h1.747c0.068,0,0.125,0.023,0.171,0.068
		c0.044,0.045,0.066,0.102,0.066,0.169v0.78c0,0.068-0.022,0.125-0.066,0.169c-0.046,0.046-0.103,0.068-0.171,0.068h-2.458
		C373.65,73.276,373.506,73.216,373.387,73.097z M373.293,62.286c-0.044-0.045-0.067-0.102-0.067-0.169v-1.476
		c0-0.067,0.023-0.125,0.067-0.17c0.046-0.045,0.103-0.068,0.171-0.068h0.814c0.066,0,0.123,0.023,0.169,0.068
		c0.045,0.045,0.067,0.103,0.067,0.17v1.476c0,0.067-0.022,0.124-0.067,0.169c-0.046,0.046-0.103,0.068-0.169,0.068h-0.814
		C373.396,62.354,373.339,62.332,373.293,62.286z"/>
	<path fill="#FFFFFF" d="M379.136,76.176c-0.672-0.396-1.01-0.983-1.01-1.764c0-0.396,0.091-0.774,0.271-1.136
		c0.182-0.362,0.425-0.662,0.729-0.899c-0.282-0.192-0.487-0.387-0.618-0.585c-0.129-0.198-0.194-0.438-0.194-0.721
		c0-0.35,0.099-0.684,0.296-1.001c0.198-0.316,0.467-0.583,0.806-0.797c-0.385-0.293-0.685-0.658-0.899-1.094
		c-0.214-0.436-0.32-0.918-0.32-1.451c0-0.644,0.154-1.214,0.465-1.712c0.312-0.497,0.733-0.882,1.265-1.153
		c0.531-0.271,1.118-0.407,1.763-0.407c0.441,0,0.883,0.073,1.323,0.22h3.357c0.069,0,0.125,0.023,0.17,0.068
		c0.046,0.045,0.069,0.102,0.069,0.169v0.78c0,0.068-0.023,0.124-0.069,0.169c-0.045,0.046-0.101,0.069-0.17,0.069h-1.712
		c0.35,0.509,0.525,1.108,0.525,1.797c0,0.645-0.155,1.216-0.467,1.714c-0.311,0.497-0.731,0.881-1.264,1.153
		c-0.531,0.271-1.119,0.407-1.764,0.407c-0.429,0-0.876-0.073-1.338-0.22c-0.25,0.113-0.441,0.26-0.578,0.441
		c-0.135,0.181-0.203,0.373-0.203,0.576c0,0.26,0.112,0.453,0.34,0.577c0.179,0.102,0.444,0.175,0.797,0.22
		c0.35,0.045,0.897,0.102,1.645,0.17l0.661,0.051c0.542,0.046,1.009,0.119,1.4,0.22c0.39,0.103,0.723,0.3,1,0.594
		c0.277,0.294,0.415,0.724,0.415,1.289c0,0.927-0.38,1.633-1.137,2.12c-0.756,0.486-1.735,0.729-2.933,0.729
		C380.683,76.77,379.808,76.571,379.136,76.176z M383.842,75.226c0.497-0.249,0.747-0.639,0.747-1.17
		c0-0.271-0.071-0.475-0.212-0.611c-0.142-0.135-0.335-0.229-0.576-0.28c-0.244-0.051-0.604-0.098-1.078-0.144
		c-0.103-0.012-0.342-0.031-0.721-0.06c-0.379-0.027-0.794-0.07-1.247-0.127c-0.271-0.034-0.497-0.068-0.679-0.103
		c-0.227,0.17-0.403,0.38-0.533,0.628c-0.13,0.248-0.195,0.503-0.195,0.764c0,0.52,0.241,0.896,0.72,1.127
		c0.48,0.231,1.094,0.348,1.842,0.348C382.699,75.6,383.344,75.475,383.842,75.226z M383.291,68.248
		c0.4-0.39,0.602-0.896,0.602-1.519c0-0.621-0.201-1.127-0.602-1.518c-0.401-0.39-0.937-0.584-1.604-0.584s-1.2,0.194-1.602,0.584
		c-0.401,0.391-0.603,0.896-0.603,1.518c0,0.623,0.201,1.128,0.603,1.519s0.935,0.585,1.602,0.585S382.89,68.638,383.291,68.248z"/>
	<path fill="#FFFFFF" d="M388.541,73.191c-0.047-0.045-0.067-0.103-0.067-0.17v-9.107c0-0.067,0.021-0.124,0.067-0.169
		c0.044-0.045,0.101-0.068,0.169-0.068h0.847c0.068,0,0.125,0.023,0.17,0.068c0.046,0.045,0.068,0.102,0.068,0.169v0.933
		c0.295-0.463,0.676-0.814,1.146-1.051c0.469-0.238,0.997-0.356,1.585-0.356c0.96,0,1.738,0.294,2.332,0.882
		c0.594,0.588,0.891,1.363,0.891,2.324v6.376c0,0.067-0.023,0.125-0.069,0.17c-0.044,0.045-0.101,0.068-0.169,0.068h-0.848
		c-0.068,0-0.125-0.023-0.17-0.068c-0.045-0.045-0.068-0.103-0.068-0.17v-6.122c0-0.724-0.188-1.275-0.566-1.654
		c-0.379-0.379-0.892-0.568-1.535-0.568c-0.759,0-1.369,0.249-1.831,0.746c-0.465,0.499-0.696,1.181-0.696,2.052v5.546
		c0,0.067-0.022,0.125-0.068,0.17c-0.045,0.045-0.102,0.068-0.17,0.068h-0.847C388.642,73.26,388.585,73.236,388.541,73.191z"/>
	<path fill="#FFFFFF" d="M400.038,72.784c-0.565-0.328-1.012-0.778-1.339-1.348c-0.33-0.571-0.493-1.19-0.493-1.857v-2.425
		c0-0.667,0.163-1.286,0.493-1.857c0.327-0.57,0.773-1.021,1.339-1.349c0.564-0.327,1.181-0.491,1.849-0.491
		c0.666,0,1.283,0.164,1.848,0.491c0.565,0.328,1.012,0.778,1.341,1.349c0.328,0.571,0.49,1.19,0.49,1.857v1.153
		c0,0.169-0.06,0.314-0.177,0.432c-0.119,0.12-0.263,0.179-0.433,0.179h-5.426v0.747c0,0.429,0.103,0.825,0.313,1.187
		c0.209,0.361,0.494,0.647,0.856,0.856c0.361,0.209,0.757,0.314,1.188,0.314h2.458c0.068,0,0.124,0.023,0.17,0.068
		c0.046,0.045,0.067,0.102,0.067,0.169v0.78c0,0.068-0.021,0.125-0.067,0.169c-0.046,0.046-0.102,0.068-0.17,0.068h-2.458
		C401.219,73.276,400.603,73.112,400.038,72.784z M404.244,67.696v-0.627c0-0.43-0.105-0.826-0.314-1.187
		c-0.209-0.362-0.495-0.647-0.857-0.856c-0.361-0.209-0.756-0.314-1.186-0.314c-0.431,0-0.826,0.104-1.188,0.314
		c-0.362,0.209-0.647,0.495-0.856,0.856c-0.21,0.361-0.313,0.757-0.313,1.187v0.627H404.244z"/>
	<path fill="#FFFFFF" d="M407.382,73.208c-0.047-0.045-0.068-0.101-0.068-0.169v-0.78c0-0.067,0.021-0.124,0.068-0.169
		c0.044-0.045,0.102-0.068,0.17-0.068h1.406v-7.14h-1.406c-0.068,0-0.126-0.022-0.17-0.068c-0.047-0.044-0.068-0.101-0.068-0.169
		v-0.729c0-0.067,0.021-0.124,0.068-0.169c0.044-0.045,0.102-0.068,0.17-0.068h2.119c0.17,0,0.314,0.06,0.433,0.178
		c0.117,0.118,0.178,0.263,0.178,0.433v0.848l0.984-0.763c0.406-0.315,0.737-0.529,0.991-0.635c0.255-0.108,0.522-0.162,0.806-0.162
		h0.509c0.08,0,0.139,0.023,0.178,0.068c0.04,0.046,0.061,0.102,0.061,0.17v0.831c0,0.068-0.023,0.125-0.068,0.169
		c-0.045,0.046-0.102,0.068-0.17,0.068h-0.373c-0.283,0-0.549,0.06-0.797,0.178c-0.25,0.119-0.621,0.376-1.119,0.772l-1.001,0.797
		v5.393h1.968c0.068,0,0.123,0.023,0.169,0.068c0.045,0.045,0.067,0.102,0.067,0.169v0.78c0,0.068-0.022,0.125-0.067,0.169
		c-0.046,0.046-0.101,0.068-0.169,0.068h-4.697C407.483,73.276,407.426,73.253,407.382,73.208z"/>
</g>
</svg>
